solid CATIA STL
  facet normal  0.000000e+000  -0.000000e+000  9.999999e-001
    outer loop
      vertex -2.742870e+000  9.416285e-001  5.250000e+000
      vertex -1.211839e+000  9.664092e-001  5.250000e+000
      vertex -9.664092e-001  1.211839e+000  5.250000e+000
    endloop
  endfacet
  facet normal  0.000000e+000  -0.000000e+000  1.000000e+000
    outer loop
      vertex  1.396502e+000  6.725198e-001  5.250000e+000
      vertex  1.511138e+000  3.449074e-001  5.250000e+000
      vertex  2.860448e+000  4.773243e-001  5.250000e+000
    endloop
  endfacet
  facet normal  -0.000000e+000  -0.000000e+000  9.999999e-001
    outer loop
      vertex -2.288507e+000 -1.781217e+000  5.250000e+000
      vertex -1.964117e+000 -2.133599e+000  5.250000e+000
      vertex -1.586150e+000 -2.427783e+000  5.250000e+000
    endloop
  endfacet
  facet normal  -0.000000e+000  -0.000000e+000  1.000000e+000
    outer loop
      vertex -2.288507e+000 -1.781217e+000  5.250000e+000
      vertex -1.586150e+000 -2.427783e+000  5.250000e+000
      vertex -1.164917e+000 -2.655743e+000  5.250000e+000
    endloop
  endfacet
  facet normal  -0.000000e+000  -0.000000e+000  1.000000e+000
    outer loop
      vertex -2.288507e+000 -1.781217e+000  5.250000e+000
      vertex -1.164917e+000 -2.655743e+000  5.250000e+000
      vertex -7.119079e-001 -2.811261e+000  5.250000e+000
    endloop
  endfacet
  facet normal  -0.000000e+000  -0.000000e+000  1.000000e+000
    outer loop
      vertex -2.288507e+000 -1.781217e+000  5.250000e+000
      vertex -7.119079e-001 -2.811261e+000  5.250000e+000
      vertex -2.394801e-001 -2.890095e+000  5.250000e+000
    endloop
  endfacet
  facet normal  0.000000e+000  -0.000000e+000  1.000000e+000
    outer loop
      vertex -2.288507e+000 -1.781217e+000  5.250000e+000
      vertex -2.394801e-001 -2.890095e+000  5.250000e+000
      vertex  2.394801e-001 -2.890095e+000  5.250000e+000
    endloop
  endfacet
  facet normal  0.000000e+000  0.000000e+000  9.999999e-001
    outer loop
      vertex -2.288507e+000 -1.781217e+000  5.250000e+000
      vertex  2.394801e-001 -2.890095e+000  5.250000e+000
      vertex -2.847210e-016 -1.550000e+000  5.250000e+000
    endloop
  endfacet
  facet normal  0.000000e+000  0.000000e+000  9.999999e-001
    outer loop
      vertex -2.288507e+000 -1.781217e+000  5.250000e+000
      vertex -2.847210e-016 -1.550000e+000  5.250000e+000
      vertex -3.449074e-001 -1.511138e+000  5.250000e+000
    endloop
  endfacet
  facet normal  0.000000e+000  0.000000e+000  1.000000e+000
    outer loop
      vertex -2.288507e+000 -1.781217e+000  5.250000e+000
      vertex -3.449074e-001 -1.511138e+000  5.250000e+000
      vertex -6.725198e-001 -1.396502e+000  5.250000e+000
    endloop
  endfacet
  facet normal  0.000000e+000  0.000000e+000  1.000000e+000
    outer loop
      vertex -2.288507e+000 -1.781217e+000  5.250000e+000
      vertex -6.725198e-001 -1.396502e+000  5.250000e+000
      vertex -2.550474e+000 -1.380247e+000  5.250000e+000
    endloop
  endfacet
  facet normal  0.000000e+000  -0.000000e+000  1.000000e+000
    outer loop
      vertex -2.847210e-016 -1.550000e+000  5.250000e+000
      vertex  2.394801e-001 -2.890095e+000  5.250000e+000
      vertex  7.119079e-001 -2.811261e+000  5.250000e+000
    endloop
  endfacet
  facet normal  0.000000e+000  -0.000000e+000  1.000000e+000
    outer loop
      vertex -2.847210e-016 -1.550000e+000  5.250000e+000
      vertex  7.119079e-001 -2.811261e+000  5.250000e+000
      vertex  1.164917e+000 -2.655743e+000  5.250000e+000
    endloop
  endfacet
  facet normal  0.000000e+000  -0.000000e+000  1.000000e+000
    outer loop
      vertex -2.847210e-016 -1.550000e+000  5.250000e+000
      vertex  1.164917e+000 -2.655743e+000  5.250000e+000
      vertex  1.586150e+000 -2.427783e+000  5.250000e+000
    endloop
  endfacet
  facet normal  0.000000e+000  -0.000000e+000  9.999999e-001
    outer loop
      vertex -2.847210e-016 -1.550000e+000  5.250000e+000
      vertex  1.586150e+000 -2.427783e+000  5.250000e+000
      vertex  1.964117e+000 -2.133599e+000  5.250000e+000
    endloop
  endfacet
  facet normal  0.000000e+000  -0.000000e+000  1.000000e+000
    outer loop
      vertex -2.847210e-016 -1.550000e+000  5.250000e+000
      vertex  1.964117e+000 -2.133599e+000  5.250000e+000
      vertex  2.288507e+000 -1.781217e+000  5.250000e+000
    endloop
  endfacet
  facet normal  0.000000e+000  0.000000e+000  9.999999e-001
    outer loop
      vertex -2.847210e-016 -1.550000e+000  5.250000e+000
      vertex  2.288507e+000 -1.781217e+000  5.250000e+000
      vertex  3.449074e-001 -1.511138e+000  5.250000e+000
    endloop
  endfacet
  facet normal  -0.000000e+000  -0.000000e+000  1.000000e+000
    outer loop
      vertex  9.490699e-017  1.550000e+000  5.250000e+000
      vertex  3.449074e-001  1.511138e+000  5.250000e+000
      vertex  2.550474e+000  1.380247e+000  5.250000e+000
    endloop
  endfacet
  facet normal  0.000000e+000  0.000000e+000  1.000000e+000
    outer loop
      vertex  9.490699e-017  1.550000e+000  5.250000e+000
      vertex  2.550474e+000  1.380247e+000  5.250000e+000
      vertex  2.288507e+000  1.781217e+000  5.250000e+000
    endloop
  endfacet
  facet normal  0.000000e+000  0.000000e+000  1.000000e+000
    outer loop
      vertex  9.490699e-017  1.550000e+000  5.250000e+000
      vertex  2.288507e+000  1.781217e+000  5.250000e+000
      vertex  1.964117e+000  2.133599e+000  5.250000e+000
    endloop
  endfacet
  facet normal  0.000000e+000  0.000000e+000  9.999999e-001
    outer loop
      vertex  9.490699e-017  1.550000e+000  5.250000e+000
      vertex  1.964117e+000  2.133599e+000  5.250000e+000
      vertex  1.586150e+000  2.427783e+000  5.250000e+000
    endloop
  endfacet
  facet normal  0.000000e+000  0.000000e+000  1.000000e+000
    outer loop
      vertex  9.490699e-017  1.550000e+000  5.250000e+000
      vertex  1.586150e+000  2.427783e+000  5.250000e+000
      vertex  1.164917e+000  2.655743e+000  5.250000e+000
    endloop
  endfacet
  facet normal  0.000000e+000  0.000000e+000  1.000000e+000
    outer loop
      vertex  9.490699e-017  1.550000e+000  5.250000e+000
      vertex  1.164917e+000  2.655743e+000  5.250000e+000
      vertex  7.119079e-001  2.811261e+000  5.250000e+000
    endloop
  endfacet
  facet normal  0.000000e+000  0.000000e+000  1.000000e+000
    outer loop
      vertex  9.490699e-017  1.550000e+000  5.250000e+000
      vertex  7.119079e-001  2.811261e+000  5.250000e+000
      vertex  2.394801e-001  2.890095e+000  5.250000e+000
    endloop
  endfacet
  facet normal  0.000000e+000  0.000000e+000  9.999999e-001
    outer loop
      vertex  9.490699e-017  1.550000e+000  5.250000e+000
      vertex  2.394801e-001  2.890095e+000  5.250000e+000
      vertex -2.394801e-001  2.890095e+000  5.250000e+000
    endloop
  endfacet
  facet normal  0.000000e+000  0.000000e+000  1.000000e+000
    outer loop
      vertex  9.490699e-017  1.550000e+000  5.250000e+000
      vertex -2.394801e-001  2.890095e+000  5.250000e+000
      vertex -7.119079e-001  2.811261e+000  5.250000e+000
    endloop
  endfacet
  facet normal  0.000000e+000  0.000000e+000  1.000000e+000
    outer loop
      vertex  9.490699e-017  1.550000e+000  5.250000e+000
      vertex -7.119079e-001  2.811261e+000  5.250000e+000
      vertex -1.164917e+000  2.655743e+000  5.250000e+000
    endloop
  endfacet
  facet normal  0.000000e+000  0.000000e+000  1.000000e+000
    outer loop
      vertex  9.490699e-017  1.550000e+000  5.250000e+000
      vertex -1.164917e+000  2.655743e+000  5.250000e+000
      vertex -1.586150e+000  2.427783e+000  5.250000e+000
    endloop
  endfacet
  facet normal  0.000000e+000  0.000000e+000  9.999999e-001
    outer loop
      vertex  9.490699e-017  1.550000e+000  5.250000e+000
      vertex -1.586150e+000  2.427783e+000  5.250000e+000
      vertex -1.964117e+000  2.133599e+000  5.250000e+000
    endloop
  endfacet
  facet normal  0.000000e+000  0.000000e+000  1.000000e+000
    outer loop
      vertex  9.490699e-017  1.550000e+000  5.250000e+000
      vertex -1.964117e+000  2.133599e+000  5.250000e+000
      vertex -2.288507e+000  1.781217e+000  5.250000e+000
    endloop
  endfacet
  facet normal  0.000000e+000  0.000000e+000  1.000000e+000
    outer loop
      vertex -2.550474e+000  1.380247e+000  5.250000e+000
      vertex -2.742870e+000  9.416285e-001  5.250000e+000
      vertex -9.664092e-001  1.211839e+000  5.250000e+000
    endloop
  endfacet
  facet normal  0.000000e+000  -0.000000e+000  1.000000e+000
    outer loop
      vertex -2.550474e+000  1.380247e+000  5.250000e+000
      vertex -9.664092e-001  1.211839e+000  5.250000e+000
      vertex -6.725198e-001  1.396502e+000  5.250000e+000
    endloop
  endfacet
  facet normal  0.000000e+000  -0.000000e+000  1.000000e+000
    outer loop
      vertex -2.550474e+000  1.380247e+000  5.250000e+000
      vertex -6.725198e-001  1.396502e+000  5.250000e+000
      vertex -3.449074e-001  1.511138e+000  5.250000e+000
    endloop
  endfacet
  facet normal  0.000000e+000  -0.000000e+000  1.000000e+000
    outer loop
      vertex -2.550474e+000  1.380247e+000  5.250000e+000
      vertex -3.449074e-001  1.511138e+000  5.250000e+000
      vertex  9.490699e-017  1.550000e+000  5.250000e+000
    endloop
  endfacet
  facet normal  0.000000e+000  0.000000e+000  1.000000e+000
    outer loop
      vertex -2.550474e+000  1.380247e+000  5.250000e+000
      vertex  9.490699e-017  1.550000e+000  5.250000e+000
      vertex -2.288507e+000  1.781217e+000  5.250000e+000
    endloop
  endfacet
  facet normal  -0.000000e+000  0.000000e+000  1.000000e+000
    outer loop
      vertex -1.211839e+000  9.664092e-001  5.250000e+000
      vertex -2.742870e+000  9.416285e-001  5.250000e+000
      vertex -1.396502e+000  6.725198e-001  5.250000e+000
    endloop
  endfacet
  facet normal  0.000000e+000  0.000000e+000  1.000000e+000
    outer loop
      vertex -1.396502e+000  6.725198e-001  5.250000e+000
      vertex -2.742870e+000  9.416285e-001  5.250000e+000
      vertex -2.860448e+000  4.773243e-001  5.250000e+000
    endloop
  endfacet
  facet normal  -0.000000e+000  0.000000e+000  1.000000e+000
    outer loop
      vertex -1.396502e+000  6.725198e-001  5.250000e+000
      vertex -2.860448e+000  4.773243e-001  5.250000e+000
      vertex -1.511138e+000  3.449074e-001  5.250000e+000
    endloop
  endfacet
  facet normal  0.000000e+000  0.000000e+000  9.999999e-001
    outer loop
      vertex -1.511138e+000  3.449074e-001  5.250000e+000
      vertex -2.860448e+000  4.773243e-001  5.250000e+000
      vertex -1.550000e+000  1.898140e-016  5.250000e+000
    endloop
  endfacet
  facet normal  0.000000e+000  0.000000e+000  1.000000e+000
    outer loop
      vertex -1.550000e+000  1.898140e-016  5.250000e+000
      vertex -2.860448e+000  4.773243e-001  5.250000e+000
      vertex -2.900000e+000  1.642995e-015  5.250000e+000
    endloop
  endfacet
  facet normal  0.000000e+000  0.000000e+000  1.000000e+000
    outer loop
      vertex -1.550000e+000  1.898140e-016  5.250000e+000
      vertex -2.900000e+000  1.642995e-015  5.250000e+000
      vertex -1.511138e+000 -3.449074e-001  5.250000e+000
    endloop
  endfacet
  facet normal  0.000000e+000  0.000000e+000  1.000000e+000
    outer loop
      vertex -1.511138e+000 -3.449074e-001  5.250000e+000
      vertex -2.900000e+000  1.642995e-015  5.250000e+000
      vertex -2.860448e+000 -4.773243e-001  5.250000e+000
    endloop
  endfacet
  facet normal  -0.000000e+000  0.000000e+000  1.000000e+000
    outer loop
      vertex -1.511138e+000 -3.449074e-001  5.250000e+000
      vertex -2.860448e+000 -4.773243e-001  5.250000e+000
      vertex -1.396502e+000 -6.725198e-001  5.250000e+000
    endloop
  endfacet
  facet normal  0.000000e+000  0.000000e+000  1.000000e+000
    outer loop
      vertex -1.396502e+000 -6.725198e-001  5.250000e+000
      vertex -2.860448e+000 -4.773243e-001  5.250000e+000
      vertex -2.742870e+000 -9.416285e-001  5.250000e+000
    endloop
  endfacet
  facet normal  -0.000000e+000  0.000000e+000  1.000000e+000
    outer loop
      vertex -1.396502e+000 -6.725198e-001  5.250000e+000
      vertex -2.742870e+000 -9.416285e-001  5.250000e+000
      vertex -1.211839e+000 -9.664092e-001  5.250000e+000
    endloop
  endfacet
  facet normal  0.000000e+000  0.000000e+000  9.999999e-001
    outer loop
      vertex -1.211839e+000 -9.664092e-001  5.250000e+000
      vertex -2.742870e+000 -9.416285e-001  5.250000e+000
      vertex -9.664092e-001 -1.211839e+000  5.250000e+000
    endloop
  endfacet
  facet normal  0.000000e+000  0.000000e+000  1.000000e+000
    outer loop
      vertex -9.664092e-001 -1.211839e+000  5.250000e+000
      vertex -2.742870e+000 -9.416285e-001  5.250000e+000
      vertex -2.550474e+000 -1.380247e+000  5.250000e+000
    endloop
  endfacet
  facet normal  -0.000000e+000  0.000000e+000  1.000000e+000
    outer loop
      vertex -9.664092e-001 -1.211839e+000  5.250000e+000
      vertex -2.550474e+000 -1.380247e+000  5.250000e+000
      vertex -6.725198e-001 -1.396502e+000  5.250000e+000
    endloop
  endfacet
  facet normal  0.000000e+000  0.000000e+000  1.000000e+000
    outer loop
      vertex  9.664092e-001  1.211839e+000  5.250000e+000
      vertex  2.742870e+000  9.416285e-001  5.250000e+000
      vertex  6.725198e-001  1.396502e+000  5.250000e+000
    endloop
  endfacet
  facet normal  0.000000e+000  0.000000e+000  1.000000e+000
    outer loop
      vertex  6.725198e-001  1.396502e+000  5.250000e+000
      vertex  2.742870e+000  9.416285e-001  5.250000e+000
      vertex  2.550474e+000  1.380247e+000  5.250000e+000
    endloop
  endfacet
  facet normal  0.000000e+000  0.000000e+000  1.000000e+000
    outer loop
      vertex  6.725198e-001  1.396502e+000  5.250000e+000
      vertex  2.550474e+000  1.380247e+000  5.250000e+000
      vertex  3.449074e-001  1.511138e+000  5.250000e+000
    endloop
  endfacet
  facet normal  0.000000e+000  0.000000e+000  1.000000e+000
    outer loop
      vertex  1.396502e+000  6.725198e-001  5.250000e+000
      vertex  2.860448e+000  4.773243e-001  5.250000e+000
      vertex  1.211839e+000  9.664092e-001  5.250000e+000
    endloop
  endfacet
  facet normal  0.000000e+000  0.000000e+000  1.000000e+000
    outer loop
      vertex  1.211839e+000  9.664092e-001  5.250000e+000
      vertex  2.860448e+000  4.773243e-001  5.250000e+000
      vertex  2.742870e+000  9.416285e-001  5.250000e+000
    endloop
  endfacet
  facet normal  0.000000e+000  0.000000e+000  9.999999e-001
    outer loop
      vertex  1.211839e+000  9.664092e-001  5.250000e+000
      vertex  2.742870e+000  9.416285e-001  5.250000e+000
      vertex  9.664092e-001  1.211839e+000  5.250000e+000
    endloop
  endfacet
  facet normal  -0.000000e+000  0.000000e+000  1.000000e+000
    outer loop
      vertex  2.860448e+000  4.773243e-001  5.250000e+000
      vertex  1.511138e+000  3.449074e-001  5.250000e+000
      vertex  2.900000e+000  0.000000e+000  5.250000e+000
    endloop
  endfacet
  facet normal  0.000000e+000  0.000000e+000  1.000000e+000
    outer loop
      vertex  2.900000e+000  0.000000e+000  5.250000e+000
      vertex  1.511138e+000  3.449074e-001  5.250000e+000
      vertex  1.550000e+000  0.000000e+000  5.250000e+000
    endloop
  endfacet
  facet normal  -0.000000e+000  0.000000e+000  1.000000e+000
    outer loop
      vertex  2.900000e+000  0.000000e+000  5.250000e+000
      vertex  1.550000e+000  0.000000e+000  5.250000e+000
      vertex  2.860448e+000 -4.773243e-001  5.250000e+000
    endloop
  endfacet
  facet normal  0.000000e+000  0.000000e+000  9.999999e-001
    outer loop
      vertex  2.860448e+000 -4.773243e-001  5.250000e+000
      vertex  1.550000e+000  0.000000e+000  5.250000e+000
      vertex  1.511138e+000 -3.449074e-001  5.250000e+000
    endloop
  endfacet
  facet normal  0.000000e+000  0.000000e+000  1.000000e+000
    outer loop
      vertex  2.860448e+000 -4.773243e-001  5.250000e+000
      vertex  1.511138e+000 -3.449074e-001  5.250000e+000
      vertex  2.742870e+000 -9.416285e-001  5.250000e+000
    endloop
  endfacet
  facet normal  0.000000e+000  0.000000e+000  1.000000e+000
    outer loop
      vertex  2.742870e+000 -9.416285e-001  5.250000e+000
      vertex  1.511138e+000 -3.449074e-001  5.250000e+000
      vertex  1.396502e+000 -6.725198e-001  5.250000e+000
    endloop
  endfacet
  facet normal  0.000000e+000  0.000000e+000  1.000000e+000
    outer loop
      vertex  2.742870e+000 -9.416285e-001  5.250000e+000
      vertex  1.396502e+000 -6.725198e-001  5.250000e+000
      vertex  1.211839e+000 -9.664092e-001  5.250000e+000
    endloop
  endfacet
  facet normal  -0.000000e+000  0.000000e+000  1.000000e+000
    outer loop
      vertex  2.742870e+000 -9.416285e-001  5.250000e+000
      vertex  1.211839e+000 -9.664092e-001  5.250000e+000
      vertex  2.550474e+000 -1.380247e+000  5.250000e+000
    endloop
  endfacet
  facet normal  0.000000e+000  0.000000e+000  1.000000e+000
    outer loop
      vertex  2.550474e+000 -1.380247e+000  5.250000e+000
      vertex  1.211839e+000 -9.664092e-001  5.250000e+000
      vertex  9.664092e-001 -1.211839e+000  5.250000e+000
    endloop
  endfacet
  facet normal  0.000000e+000  0.000000e+000  1.000000e+000
    outer loop
      vertex  2.550474e+000 -1.380247e+000  5.250000e+000
      vertex  9.664092e-001 -1.211839e+000  5.250000e+000
      vertex  6.725198e-001 -1.396502e+000  5.250000e+000
    endloop
  endfacet
  facet normal  0.000000e+000  0.000000e+000  1.000000e+000
    outer loop
      vertex  6.725198e-001 -1.396502e+000  5.250000e+000
      vertex  3.449074e-001 -1.511138e+000  5.250000e+000
      vertex  2.550474e+000 -1.380247e+000  5.250000e+000
    endloop
  endfacet
  facet normal  0.000000e+000  0.000000e+000  1.000000e+000
    outer loop
      vertex  2.550474e+000 -1.380247e+000  5.250000e+000
      vertex  3.449074e-001 -1.511138e+000  5.250000e+000
      vertex  2.288507e+000 -1.781217e+000  5.250000e+000
    endloop
  endfacet
  facet normal  -0.000000e+000  0.000000e+000 -9.999999e-001
    outer loop
      vertex -9.664092e-001  1.211839e+000  0.000000e+000
      vertex -1.211839e+000  9.664092e-001  0.000000e+000
      vertex -2.742870e+000  9.416285e-001  0.000000e+000
    endloop
  endfacet
  facet normal  0.000000e+000  0.000000e+000 -1.000000e+000
    outer loop
      vertex  2.860448e+000  4.773243e-001  0.000000e+000
      vertex  1.511138e+000  3.449074e-001  0.000000e+000
      vertex  1.396502e+000  6.725198e-001  0.000000e+000
    endloop
  endfacet
  facet normal  0.000000e+000  0.000000e+000 -1.000000e+000
    outer loop
      vertex -2.288507e+000 -1.781217e+000  0.000000e+000
      vertex -2.550474e+000 -1.380247e+000  0.000000e+000
      vertex -6.725198e-001 -1.396502e+000  0.000000e+000
    endloop
  endfacet
  facet normal  0.000000e+000  -0.000000e+000 -1.000000e+000
    outer loop
      vertex -2.288507e+000 -1.781217e+000  0.000000e+000
      vertex -6.725198e-001 -1.396502e+000  0.000000e+000
      vertex -3.449074e-001 -1.511138e+000  0.000000e+000
    endloop
  endfacet
  facet normal  0.000000e+000  -0.000000e+000 -1.000000e+000
    outer loop
      vertex -2.288507e+000 -1.781217e+000  0.000000e+000
      vertex -3.449074e-001 -1.511138e+000  0.000000e+000
      vertex -2.847210e-016 -1.550000e+000  0.000000e+000
    endloop
  endfacet
  facet normal  0.000000e+000  -0.000000e+000 -9.999999e-001
    outer loop
      vertex -2.288507e+000 -1.781217e+000  0.000000e+000
      vertex -2.847210e-016 -1.550000e+000  0.000000e+000
      vertex  2.394801e-001 -2.890095e+000  0.000000e+000
    endloop
  endfacet
  facet normal  0.000000e+000  0.000000e+000 -1.000000e+000
    outer loop
      vertex -2.288507e+000 -1.781217e+000  0.000000e+000
      vertex  2.394801e-001 -2.890095e+000  0.000000e+000
      vertex -2.394801e-001 -2.890095e+000  0.000000e+000
    endloop
  endfacet
  facet normal  0.000000e+000  0.000000e+000 -1.000000e+000
    outer loop
      vertex -2.288507e+000 -1.781217e+000  0.000000e+000
      vertex -2.394801e-001 -2.890095e+000  0.000000e+000
      vertex -7.119079e-001 -2.811261e+000  0.000000e+000
    endloop
  endfacet
  facet normal  0.000000e+000  0.000000e+000 -1.000000e+000
    outer loop
      vertex -2.288507e+000 -1.781217e+000  0.000000e+000
      vertex -7.119079e-001 -2.811261e+000  0.000000e+000
      vertex -1.164917e+000 -2.655743e+000  0.000000e+000
    endloop
  endfacet
  facet normal  0.000000e+000  0.000000e+000 -1.000000e+000
    outer loop
      vertex -2.288507e+000 -1.781217e+000  0.000000e+000
      vertex -1.164917e+000 -2.655743e+000  0.000000e+000
      vertex -1.586150e+000 -2.427783e+000  0.000000e+000
    endloop
  endfacet
  facet normal  0.000000e+000  0.000000e+000 -9.999999e-001
    outer loop
      vertex -2.288507e+000 -1.781217e+000  0.000000e+000
      vertex -1.586150e+000 -2.427783e+000  0.000000e+000
      vertex -1.964117e+000 -2.133599e+000  0.000000e+000
    endloop
  endfacet
  facet normal  0.000000e+000  -0.000000e+000 -1.000000e+000
    outer loop
      vertex -2.847210e-016 -1.550000e+000  0.000000e+000
      vertex  3.449074e-001 -1.511138e+000  0.000000e+000
      vertex  2.288507e+000 -1.781217e+000  0.000000e+000
    endloop
  endfacet
  facet normal  -0.000000e+000  0.000000e+000 -1.000000e+000
    outer loop
      vertex -2.847210e-016 -1.550000e+000  0.000000e+000
      vertex  2.288507e+000 -1.781217e+000  0.000000e+000
      vertex  1.964117e+000 -2.133599e+000  0.000000e+000
    endloop
  endfacet
  facet normal  -0.000000e+000  0.000000e+000 -9.999999e-001
    outer loop
      vertex -2.847210e-016 -1.550000e+000  0.000000e+000
      vertex  1.964117e+000 -2.133599e+000  0.000000e+000
      vertex  1.586150e+000 -2.427783e+000  0.000000e+000
    endloop
  endfacet
  facet normal  -0.000000e+000  0.000000e+000 -1.000000e+000
    outer loop
      vertex -2.847210e-016 -1.550000e+000  0.000000e+000
      vertex  1.586150e+000 -2.427783e+000  0.000000e+000
      vertex  1.164917e+000 -2.655743e+000  0.000000e+000
    endloop
  endfacet
  facet normal  -0.000000e+000  0.000000e+000 -1.000000e+000
    outer loop
      vertex -2.847210e-016 -1.550000e+000  0.000000e+000
      vertex  1.164917e+000 -2.655743e+000  0.000000e+000
      vertex  7.119079e-001 -2.811261e+000  0.000000e+000
    endloop
  endfacet
  facet normal  -0.000000e+000  0.000000e+000 -1.000000e+000
    outer loop
      vertex -2.847210e-016 -1.550000e+000  0.000000e+000
      vertex  7.119079e-001 -2.811261e+000  0.000000e+000
      vertex  2.394801e-001 -2.890095e+000  0.000000e+000
    endloop
  endfacet
  facet normal  0.000000e+000  0.000000e+000 -1.000000e+000
    outer loop
      vertex  9.490699e-017  1.550000e+000  0.000000e+000
      vertex -2.288507e+000  1.781217e+000  0.000000e+000
      vertex -1.964117e+000  2.133599e+000  0.000000e+000
    endloop
  endfacet
  facet normal  0.000000e+000  0.000000e+000 -9.999999e-001
    outer loop
      vertex  9.490699e-017  1.550000e+000  0.000000e+000
      vertex -1.964117e+000  2.133599e+000  0.000000e+000
      vertex -1.586150e+000  2.427783e+000  0.000000e+000
    endloop
  endfacet
  facet normal  0.000000e+000  0.000000e+000 -1.000000e+000
    outer loop
      vertex  9.490699e-017  1.550000e+000  0.000000e+000
      vertex -1.586150e+000  2.427783e+000  0.000000e+000
      vertex -1.164917e+000  2.655743e+000  0.000000e+000
    endloop
  endfacet
  facet normal  0.000000e+000  0.000000e+000 -1.000000e+000
    outer loop
      vertex  9.490699e-017  1.550000e+000  0.000000e+000
      vertex -1.164917e+000  2.655743e+000  0.000000e+000
      vertex -7.119079e-001  2.811261e+000  0.000000e+000
    endloop
  endfacet
  facet normal  0.000000e+000  0.000000e+000 -1.000000e+000
    outer loop
      vertex  9.490699e-017  1.550000e+000  0.000000e+000
      vertex -7.119079e-001  2.811261e+000  0.000000e+000
      vertex -2.394801e-001  2.890095e+000  0.000000e+000
    endloop
  endfacet
  facet normal  0.000000e+000  0.000000e+000 -9.999999e-001
    outer loop
      vertex  9.490699e-017  1.550000e+000  0.000000e+000
      vertex -2.394801e-001  2.890095e+000  0.000000e+000
      vertex  2.394801e-001  2.890095e+000  0.000000e+000
    endloop
  endfacet
  facet normal  0.000000e+000  -0.000000e+000 -1.000000e+000
    outer loop
      vertex  9.490699e-017  1.550000e+000  0.000000e+000
      vertex  2.394801e-001  2.890095e+000  0.000000e+000
      vertex  7.119079e-001  2.811261e+000  0.000000e+000
    endloop
  endfacet
  facet normal  0.000000e+000  -0.000000e+000 -1.000000e+000
    outer loop
      vertex  9.490699e-017  1.550000e+000  0.000000e+000
      vertex  7.119079e-001  2.811261e+000  0.000000e+000
      vertex  1.164917e+000  2.655743e+000  0.000000e+000
    endloop
  endfacet
  facet normal  0.000000e+000  -0.000000e+000 -1.000000e+000
    outer loop
      vertex  9.490699e-017  1.550000e+000  0.000000e+000
      vertex  1.164917e+000  2.655743e+000  0.000000e+000
      vertex  1.586150e+000  2.427783e+000  0.000000e+000
    endloop
  endfacet
  facet normal  0.000000e+000  -0.000000e+000 -9.999999e-001
    outer loop
      vertex  9.490699e-017  1.550000e+000  0.000000e+000
      vertex  1.586150e+000  2.427783e+000  0.000000e+000
      vertex  1.964117e+000  2.133599e+000  0.000000e+000
    endloop
  endfacet
  facet normal  0.000000e+000  -0.000000e+000 -1.000000e+000
    outer loop
      vertex  9.490699e-017  1.550000e+000  0.000000e+000
      vertex  1.964117e+000  2.133599e+000  0.000000e+000
      vertex  2.288507e+000  1.781217e+000  0.000000e+000
    endloop
  endfacet
  facet normal  0.000000e+000  -0.000000e+000 -1.000000e+000
    outer loop
      vertex  9.490699e-017  1.550000e+000  0.000000e+000
      vertex  2.288507e+000  1.781217e+000  0.000000e+000
      vertex  2.550474e+000  1.380247e+000  0.000000e+000
    endloop
  endfacet
  facet normal  0.000000e+000  0.000000e+000 -1.000000e+000
    outer loop
      vertex  9.490699e-017  1.550000e+000  0.000000e+000
      vertex  2.550474e+000  1.380247e+000  0.000000e+000
      vertex  3.449074e-001  1.511138e+000  0.000000e+000
    endloop
  endfacet
  facet normal  0.000000e+000  -0.000000e+000 -1.000000e+000
    outer loop
      vertex -2.550474e+000  1.380247e+000  0.000000e+000
      vertex -2.288507e+000  1.781217e+000  0.000000e+000
      vertex  9.490699e-017  1.550000e+000  0.000000e+000
    endloop
  endfacet
  facet normal  0.000000e+000  0.000000e+000 -1.000000e+000
    outer loop
      vertex -2.550474e+000  1.380247e+000  0.000000e+000
      vertex  9.490699e-017  1.550000e+000  0.000000e+000
      vertex -3.449074e-001  1.511138e+000  0.000000e+000
    endloop
  endfacet
  facet normal  0.000000e+000  0.000000e+000 -1.000000e+000
    outer loop
      vertex -2.550474e+000  1.380247e+000  0.000000e+000
      vertex -3.449074e-001  1.511138e+000  0.000000e+000
      vertex -6.725198e-001  1.396502e+000  0.000000e+000
    endloop
  endfacet
  facet normal  0.000000e+000  0.000000e+000 -1.000000e+000
    outer loop
      vertex -2.550474e+000  1.380247e+000  0.000000e+000
      vertex -6.725198e-001  1.396502e+000  0.000000e+000
      vertex -9.664092e-001  1.211839e+000  0.000000e+000
    endloop
  endfacet
  facet normal  -0.000000e+000  0.000000e+000 -1.000000e+000
    outer loop
      vertex -2.550474e+000  1.380247e+000  0.000000e+000
      vertex -9.664092e-001  1.211839e+000  0.000000e+000
      vertex -2.742870e+000  9.416285e-001  0.000000e+000
    endloop
  endfacet
  facet normal  0.000000e+000  0.000000e+000 -1.000000e+000
    outer loop
      vertex -1.511138e+000  3.449074e-001  0.000000e+000
      vertex -2.860448e+000  4.773243e-001  0.000000e+000
      vertex -1.396502e+000  6.725198e-001  0.000000e+000
    endloop
  endfacet
  facet normal  -0.000000e+000  0.000000e+000 -1.000000e+000
    outer loop
      vertex -1.396502e+000  6.725198e-001  0.000000e+000
      vertex -2.860448e+000  4.773243e-001  0.000000e+000
      vertex -2.742870e+000  9.416285e-001  0.000000e+000
    endloop
  endfacet
  facet normal  0.000000e+000  0.000000e+000 -1.000000e+000
    outer loop
      vertex -1.396502e+000  6.725198e-001  0.000000e+000
      vertex -2.742870e+000  9.416285e-001  0.000000e+000
      vertex -1.211839e+000  9.664092e-001  0.000000e+000
    endloop
  endfacet
  facet normal  0.000000e+000  0.000000e+000 -1.000000e+000
    outer loop
      vertex -1.211839e+000 -9.664092e-001  0.000000e+000
      vertex -2.742870e+000 -9.416285e-001  0.000000e+000
      vertex -1.396502e+000 -6.725198e-001  0.000000e+000
    endloop
  endfacet
  facet normal  -0.000000e+000  0.000000e+000 -1.000000e+000
    outer loop
      vertex -1.396502e+000 -6.725198e-001  0.000000e+000
      vertex -2.742870e+000 -9.416285e-001  0.000000e+000
      vertex -2.860448e+000 -4.773243e-001  0.000000e+000
    endloop
  endfacet
  facet normal  0.000000e+000  0.000000e+000 -1.000000e+000
    outer loop
      vertex -1.396502e+000 -6.725198e-001  0.000000e+000
      vertex -2.860448e+000 -4.773243e-001  0.000000e+000
      vertex -1.511138e+000 -3.449074e-001  0.000000e+000
    endloop
  endfacet
  facet normal  -0.000000e+000  0.000000e+000 -1.000000e+000
    outer loop
      vertex -1.511138e+000 -3.449074e-001  0.000000e+000
      vertex -2.860448e+000 -4.773243e-001  0.000000e+000
      vertex -2.900000e+000  1.642995e-015  0.000000e+000
    endloop
  endfacet
  facet normal  0.000000e+000  0.000000e+000 -1.000000e+000
    outer loop
      vertex -1.511138e+000 -3.449074e-001  0.000000e+000
      vertex -2.900000e+000  1.642995e-015  0.000000e+000
      vertex -1.550000e+000  1.898140e-016  0.000000e+000
    endloop
  endfacet
  facet normal  0.000000e+000  0.000000e+000 -1.000000e+000
    outer loop
      vertex -1.550000e+000  1.898140e-016  0.000000e+000
      vertex -2.900000e+000  1.642995e-015  0.000000e+000
      vertex -2.860448e+000  4.773243e-001  0.000000e+000
    endloop
  endfacet
  facet normal  0.000000e+000  0.000000e+000 -9.999999e-001
    outer loop
      vertex -1.550000e+000  1.898140e-016  0.000000e+000
      vertex -2.860448e+000  4.773243e-001  0.000000e+000
      vertex -1.511138e+000  3.449074e-001  0.000000e+000
    endloop
  endfacet
  facet normal  0.000000e+000  0.000000e+000 -1.000000e+000
    outer loop
      vertex -6.725198e-001 -1.396502e+000  0.000000e+000
      vertex -2.550474e+000 -1.380247e+000  0.000000e+000
      vertex -9.664092e-001 -1.211839e+000  0.000000e+000
    endloop
  endfacet
  facet normal  -0.000000e+000  0.000000e+000 -1.000000e+000
    outer loop
      vertex -9.664092e-001 -1.211839e+000  0.000000e+000
      vertex -2.550474e+000 -1.380247e+000  0.000000e+000
      vertex -2.742870e+000 -9.416285e-001  0.000000e+000
    endloop
  endfacet
  facet normal  0.000000e+000  0.000000e+000 -9.999999e-001
    outer loop
      vertex -9.664092e-001 -1.211839e+000  0.000000e+000
      vertex -2.742870e+000 -9.416285e-001  0.000000e+000
      vertex -1.211839e+000 -9.664092e-001  0.000000e+000
    endloop
  endfacet
  facet normal  0.000000e+000  0.000000e+000 -1.000000e+000
    outer loop
      vertex  3.449074e-001  1.511138e+000  0.000000e+000
      vertex  2.550474e+000  1.380247e+000  0.000000e+000
      vertex  6.725198e-001  1.396502e+000  0.000000e+000
    endloop
  endfacet
  facet normal  0.000000e+000  0.000000e+000 -1.000000e+000
    outer loop
      vertex  6.725198e-001  1.396502e+000  0.000000e+000
      vertex  2.550474e+000  1.380247e+000  0.000000e+000
      vertex  2.742870e+000  9.416285e-001  0.000000e+000
    endloop
  endfacet
  facet normal  0.000000e+000  0.000000e+000 -1.000000e+000
    outer loop
      vertex  6.725198e-001  1.396502e+000  0.000000e+000
      vertex  2.742870e+000  9.416285e-001  0.000000e+000
      vertex  9.664092e-001  1.211839e+000  0.000000e+000
    endloop
  endfacet
  facet normal  0.000000e+000  0.000000e+000 -9.999999e-001
    outer loop
      vertex  9.664092e-001  1.211839e+000  0.000000e+000
      vertex  2.742870e+000  9.416285e-001  0.000000e+000
      vertex  1.211839e+000  9.664092e-001  0.000000e+000
    endloop
  endfacet
  facet normal  0.000000e+000  0.000000e+000 -1.000000e+000
    outer loop
      vertex  1.211839e+000  9.664092e-001  0.000000e+000
      vertex  2.742870e+000  9.416285e-001  0.000000e+000
      vertex  2.860448e+000  4.773243e-001  0.000000e+000
    endloop
  endfacet
  facet normal  0.000000e+000  0.000000e+000 -1.000000e+000
    outer loop
      vertex  1.211839e+000  9.664092e-001  0.000000e+000
      vertex  2.860448e+000  4.773243e-001  0.000000e+000
      vertex  1.396502e+000  6.725198e-001  0.000000e+000
    endloop
  endfacet
  facet normal  0.000000e+000  -0.000000e+000 -1.000000e+000
    outer loop
      vertex  1.211839e+000 -9.664092e-001  0.000000e+000
      vertex  1.396502e+000 -6.725198e-001  0.000000e+000
      vertex  2.742870e+000 -9.416285e-001  0.000000e+000
    endloop
  endfacet
  facet normal  0.000000e+000  0.000000e+000 -1.000000e+000
    outer loop
      vertex  2.742870e+000 -9.416285e-001  0.000000e+000
      vertex  1.396502e+000 -6.725198e-001  0.000000e+000
      vertex  1.511138e+000 -3.449074e-001  0.000000e+000
    endloop
  endfacet
  facet normal  0.000000e+000  0.000000e+000 -1.000000e+000
    outer loop
      vertex  2.742870e+000 -9.416285e-001  0.000000e+000
      vertex  1.511138e+000 -3.449074e-001  0.000000e+000
      vertex  2.860448e+000 -4.773243e-001  0.000000e+000
    endloop
  endfacet
  facet normal  0.000000e+000  0.000000e+000 -9.999999e-001
    outer loop
      vertex  2.860448e+000 -4.773243e-001  0.000000e+000
      vertex  1.511138e+000 -3.449074e-001  0.000000e+000
      vertex  1.550000e+000  0.000000e+000  0.000000e+000
    endloop
  endfacet
  facet normal  0.000000e+000  0.000000e+000 -1.000000e+000
    outer loop
      vertex  2.860448e+000 -4.773243e-001  0.000000e+000
      vertex  1.550000e+000  0.000000e+000  0.000000e+000
      vertex  2.900000e+000  0.000000e+000  0.000000e+000
    endloop
  endfacet
  facet normal  0.000000e+000  0.000000e+000 -1.000000e+000
    outer loop
      vertex  2.900000e+000  0.000000e+000  0.000000e+000
      vertex  1.550000e+000  0.000000e+000  0.000000e+000
      vertex  1.511138e+000  3.449074e-001  0.000000e+000
    endloop
  endfacet
  facet normal  0.000000e+000  0.000000e+000 -1.000000e+000
    outer loop
      vertex  2.900000e+000  0.000000e+000  0.000000e+000
      vertex  1.511138e+000  3.449074e-001  0.000000e+000
      vertex  2.860448e+000  4.773243e-001  0.000000e+000
    endloop
  endfacet
  facet normal  0.000000e+000  -0.000000e+000 -1.000000e+000
    outer loop
      vertex  6.725198e-001 -1.396502e+000  0.000000e+000
      vertex  9.664092e-001 -1.211839e+000  0.000000e+000
      vertex  2.550474e+000 -1.380247e+000  0.000000e+000
    endloop
  endfacet
  facet normal  0.000000e+000  0.000000e+000 -1.000000e+000
    outer loop
      vertex  2.550474e+000 -1.380247e+000  0.000000e+000
      vertex  9.664092e-001 -1.211839e+000  0.000000e+000
      vertex  1.211839e+000 -9.664092e-001  0.000000e+000
    endloop
  endfacet
  facet normal  0.000000e+000  0.000000e+000 -1.000000e+000
    outer loop
      vertex  2.550474e+000 -1.380247e+000  0.000000e+000
      vertex  1.211839e+000 -9.664092e-001  0.000000e+000
      vertex  2.742870e+000 -9.416285e-001  0.000000e+000
    endloop
  endfacet
  facet normal  0.000000e+000  0.000000e+000 -1.000000e+000
    outer loop
      vertex  6.725198e-001 -1.396502e+000  0.000000e+000
      vertex  2.550474e+000 -1.380247e+000  0.000000e+000
      vertex  3.449074e-001 -1.511138e+000  0.000000e+000
    endloop
  endfacet
  facet normal  0.000000e+000  0.000000e+000 -1.000000e+000
    outer loop
      vertex  3.449074e-001 -1.511138e+000  0.000000e+000
      vertex  2.550474e+000 -1.380247e+000  0.000000e+000
      vertex  2.288507e+000 -1.781217e+000  0.000000e+000
    endloop
  endfacet
  facet normal  1.119642e-001 -9.937122e-001  0.000000e+000
    outer loop
      vertex  9.490699e-017  1.550000e+000  0.000000e+000
      vertex -3.449074e-001  1.511138e+000  5.250000e+000
      vertex -3.449074e-001  1.511138e+000  0.000000e+000
    endloop
  endfacet
  facet normal  3.302791e-001 -9.438834e-001  0.000000e+000
    outer loop
      vertex -3.449074e-001  1.511138e+000  0.000000e+000
      vertex -3.449074e-001  1.511138e+000  5.250000e+000
      vertex -6.725198e-001  1.396502e+000  5.250000e+000
    endloop
  endfacet
  facet normal  3.302791e-001 -9.438834e-001  0.000000e+000
    outer loop
      vertex -3.449074e-001  1.511138e+000  0.000000e+000
      vertex -6.725198e-001  1.396502e+000  5.250000e+000
      vertex -6.725198e-001  1.396502e+000  0.000000e+000
    endloop
  endfacet
  facet normal  5.320321e-001 -8.467243e-001  0.000000e+000
    outer loop
      vertex -6.725198e-001  1.396502e+000  0.000000e+000
      vertex -6.725198e-001  1.396502e+000  5.250000e+000
      vertex -9.664092e-001  1.211839e+000  5.250000e+000
    endloop
  endfacet
  facet normal  5.320321e-001 -8.467243e-001  0.000000e+000
    outer loop
      vertex -6.725198e-001  1.396502e+000  0.000000e+000
      vertex -9.664092e-001  1.211839e+000  5.250000e+000
      vertex -9.664092e-001  1.211839e+000  0.000000e+000
    endloop
  endfacet
  facet normal  7.071067e-001 -7.071067e-001  0.000000e+000
    outer loop
      vertex -9.664092e-001  1.211839e+000  0.000000e+000
      vertex -9.664092e-001  1.211839e+000  5.250000e+000
      vertex -1.211839e+000  9.664092e-001  5.250000e+000
    endloop
  endfacet
  facet normal  7.071067e-001 -7.071067e-001  0.000000e+000
    outer loop
      vertex -9.664092e-001  1.211839e+000  0.000000e+000
      vertex -1.211839e+000  9.664092e-001  5.250000e+000
      vertex -1.211839e+000  9.664092e-001  0.000000e+000
    endloop
  endfacet
  facet normal  8.467243e-001 -5.320321e-001  0.000000e+000
    outer loop
      vertex -1.211839e+000  9.664092e-001  0.000000e+000
      vertex -1.211839e+000  9.664092e-001  5.250000e+000
      vertex -1.396502e+000  6.725198e-001  5.250000e+000
    endloop
  endfacet
  facet normal  8.467243e-001 -5.320321e-001  0.000000e+000
    outer loop
      vertex -1.211839e+000  9.664092e-001  0.000000e+000
      vertex -1.396502e+000  6.725198e-001  5.250000e+000
      vertex -1.396502e+000  6.725198e-001  0.000000e+000
    endloop
  endfacet
  facet normal  9.438834e-001 -3.302791e-001  0.000000e+000
    outer loop
      vertex -1.396502e+000  6.725198e-001  0.000000e+000
      vertex -1.396502e+000  6.725198e-001  5.250000e+000
      vertex -1.511138e+000  3.449074e-001  5.250000e+000
    endloop
  endfacet
  facet normal  9.438834e-001 -3.302791e-001  0.000000e+000
    outer loop
      vertex -1.396502e+000  6.725198e-001  0.000000e+000
      vertex -1.511138e+000  3.449074e-001  5.250000e+000
      vertex -1.511138e+000  3.449074e-001  0.000000e+000
    endloop
  endfacet
  facet normal  9.937122e-001 -1.119642e-001  0.000000e+000
    outer loop
      vertex -1.511138e+000  3.449074e-001  0.000000e+000
      vertex -1.511138e+000  3.449074e-001  5.250000e+000
      vertex -1.550000e+000  1.898140e-016  5.250000e+000
    endloop
  endfacet
  facet normal  9.937122e-001 -1.119642e-001  0.000000e+000
    outer loop
      vertex -1.511138e+000  3.449074e-001  0.000000e+000
      vertex -1.550000e+000  1.898140e-016  5.250000e+000
      vertex -1.550000e+000  1.898140e-016  0.000000e+000
    endloop
  endfacet
  facet normal  1.119642e-001 -9.937122e-001  0.000000e+000
    outer loop
      vertex -3.449074e-001  1.511138e+000  5.250000e+000
      vertex  9.490699e-017  1.550000e+000  0.000000e+000
      vertex  9.490699e-017  1.550000e+000  5.250000e+000
    endloop
  endfacet
  facet normal -1.119642e-001 -9.937122e-001  -0.000000e+000
    outer loop
      vertex  9.490699e-017  1.550000e+000  5.250000e+000
      vertex  9.490699e-017  1.550000e+000  0.000000e+000
      vertex  3.449074e-001  1.511138e+000  0.000000e+000
    endloop
  endfacet
  facet normal -1.119642e-001 -9.937122e-001  0.000000e+000
    outer loop
      vertex  9.490699e-017  1.550000e+000  5.250000e+000
      vertex  3.449074e-001  1.511138e+000  0.000000e+000
      vertex  3.449074e-001  1.511138e+000  5.250000e+000
    endloop
  endfacet
  facet normal -3.302791e-001 -9.438834e-001  -0.000000e+000
    outer loop
      vertex  3.449074e-001  1.511138e+000  5.250000e+000
      vertex  3.449074e-001  1.511138e+000  0.000000e+000
      vertex  6.725198e-001  1.396502e+000  0.000000e+000
    endloop
  endfacet
  facet normal -3.302791e-001 -9.438834e-001  0.000000e+000
    outer loop
      vertex  3.449074e-001  1.511138e+000  5.250000e+000
      vertex  6.725198e-001  1.396502e+000  0.000000e+000
      vertex  6.725198e-001  1.396502e+000  5.250000e+000
    endloop
  endfacet
  facet normal -5.320321e-001 -8.467243e-001  -0.000000e+000
    outer loop
      vertex  6.725198e-001  1.396502e+000  5.250000e+000
      vertex  6.725198e-001  1.396502e+000  0.000000e+000
      vertex  9.664092e-001  1.211839e+000  0.000000e+000
    endloop
  endfacet
  facet normal -5.320321e-001 -8.467243e-001  0.000000e+000
    outer loop
      vertex  6.725198e-001  1.396502e+000  5.250000e+000
      vertex  9.664092e-001  1.211839e+000  0.000000e+000
      vertex  9.664092e-001  1.211839e+000  5.250000e+000
    endloop
  endfacet
  facet normal -7.071067e-001 -7.071067e-001  -0.000000e+000
    outer loop
      vertex  9.664092e-001  1.211839e+000  5.250000e+000
      vertex  9.664092e-001  1.211839e+000  0.000000e+000
      vertex  1.211839e+000  9.664092e-001  0.000000e+000
    endloop
  endfacet
  facet normal -7.071067e-001 -7.071067e-001  0.000000e+000
    outer loop
      vertex  9.664092e-001  1.211839e+000  5.250000e+000
      vertex  1.211839e+000  9.664092e-001  0.000000e+000
      vertex  1.211839e+000  9.664092e-001  5.250000e+000
    endloop
  endfacet
  facet normal -8.467243e-001 -5.320321e-001  -0.000000e+000
    outer loop
      vertex  1.211839e+000  9.664092e-001  5.250000e+000
      vertex  1.211839e+000  9.664092e-001  0.000000e+000
      vertex  1.396502e+000  6.725198e-001  0.000000e+000
    endloop
  endfacet
  facet normal -8.467243e-001 -5.320321e-001  0.000000e+000
    outer loop
      vertex  1.211839e+000  9.664092e-001  5.250000e+000
      vertex  1.396502e+000  6.725198e-001  0.000000e+000
      vertex  1.396502e+000  6.725198e-001  5.250000e+000
    endloop
  endfacet
  facet normal -9.438834e-001 -3.302791e-001  -0.000000e+000
    outer loop
      vertex  1.396502e+000  6.725198e-001  5.250000e+000
      vertex  1.396502e+000  6.725198e-001  0.000000e+000
      vertex  1.511138e+000  3.449074e-001  0.000000e+000
    endloop
  endfacet
  facet normal -9.438834e-001 -3.302791e-001  0.000000e+000
    outer loop
      vertex  1.396502e+000  6.725198e-001  5.250000e+000
      vertex  1.511138e+000  3.449074e-001  0.000000e+000
      vertex  1.511138e+000  3.449074e-001  5.250000e+000
    endloop
  endfacet
  facet normal -9.937122e-001 -1.119642e-001  -0.000000e+000
    outer loop
      vertex  1.511138e+000  3.449074e-001  5.250000e+000
      vertex  1.511138e+000  3.449074e-001  0.000000e+000
      vertex  1.550000e+000  0.000000e+000  0.000000e+000
    endloop
  endfacet
  facet normal -9.937122e-001 -1.119642e-001  0.000000e+000
    outer loop
      vertex  1.511138e+000  3.449074e-001  5.250000e+000
      vertex  1.550000e+000  0.000000e+000  0.000000e+000
      vertex  1.550000e+000  0.000000e+000  5.250000e+000
    endloop
  endfacet
  facet normal -1.119642e-001  9.937122e-001  0.000000e+000
    outer loop
      vertex -2.847210e-016 -1.550000e+000  0.000000e+000
      vertex  3.449074e-001 -1.511138e+000  5.250000e+000
      vertex  3.449074e-001 -1.511138e+000  0.000000e+000
    endloop
  endfacet
  facet normal -3.302791e-001  9.438834e-001  0.000000e+000
    outer loop
      vertex  3.449074e-001 -1.511138e+000  0.000000e+000
      vertex  3.449074e-001 -1.511138e+000  5.250000e+000
      vertex  6.725198e-001 -1.396502e+000  5.250000e+000
    endloop
  endfacet
  facet normal -3.302791e-001  9.438834e-001  0.000000e+000
    outer loop
      vertex  3.449074e-001 -1.511138e+000  0.000000e+000
      vertex  6.725198e-001 -1.396502e+000  5.250000e+000
      vertex  6.725198e-001 -1.396502e+000  0.000000e+000
    endloop
  endfacet
  facet normal -5.320321e-001  8.467243e-001  0.000000e+000
    outer loop
      vertex  6.725198e-001 -1.396502e+000  0.000000e+000
      vertex  6.725198e-001 -1.396502e+000  5.250000e+000
      vertex  9.664092e-001 -1.211839e+000  5.250000e+000
    endloop
  endfacet
  facet normal -5.320321e-001  8.467243e-001  0.000000e+000
    outer loop
      vertex  6.725198e-001 -1.396502e+000  0.000000e+000
      vertex  9.664092e-001 -1.211839e+000  5.250000e+000
      vertex  9.664092e-001 -1.211839e+000  0.000000e+000
    endloop
  endfacet
  facet normal -7.071067e-001  7.071067e-001  0.000000e+000
    outer loop
      vertex  9.664092e-001 -1.211839e+000  0.000000e+000
      vertex  9.664092e-001 -1.211839e+000  5.250000e+000
      vertex  1.211839e+000 -9.664092e-001  5.250000e+000
    endloop
  endfacet
  facet normal -7.071067e-001  7.071067e-001  0.000000e+000
    outer loop
      vertex  9.664092e-001 -1.211839e+000  0.000000e+000
      vertex  1.211839e+000 -9.664092e-001  5.250000e+000
      vertex  1.211839e+000 -9.664092e-001  0.000000e+000
    endloop
  endfacet
  facet normal -8.467243e-001  5.320321e-001  0.000000e+000
    outer loop
      vertex  1.211839e+000 -9.664092e-001  0.000000e+000
      vertex  1.211839e+000 -9.664092e-001  5.250000e+000
      vertex  1.396502e+000 -6.725198e-001  5.250000e+000
    endloop
  endfacet
  facet normal -8.467243e-001  5.320321e-001  0.000000e+000
    outer loop
      vertex  1.211839e+000 -9.664092e-001  0.000000e+000
      vertex  1.396502e+000 -6.725198e-001  5.250000e+000
      vertex  1.396502e+000 -6.725198e-001  0.000000e+000
    endloop
  endfacet
  facet normal -9.438834e-001  3.302791e-001  0.000000e+000
    outer loop
      vertex  1.396502e+000 -6.725198e-001  0.000000e+000
      vertex  1.396502e+000 -6.725198e-001  5.250000e+000
      vertex  1.511138e+000 -3.449074e-001  5.250000e+000
    endloop
  endfacet
  facet normal -9.438834e-001  3.302791e-001  0.000000e+000
    outer loop
      vertex  1.396502e+000 -6.725198e-001  0.000000e+000
      vertex  1.511138e+000 -3.449074e-001  5.250000e+000
      vertex  1.511138e+000 -3.449074e-001  0.000000e+000
    endloop
  endfacet
  facet normal -9.937122e-001  1.119642e-001  0.000000e+000
    outer loop
      vertex  1.511138e+000 -3.449074e-001  0.000000e+000
      vertex  1.511138e+000 -3.449074e-001  5.250000e+000
      vertex  1.550000e+000  0.000000e+000  5.250000e+000
    endloop
  endfacet
  facet normal -9.937122e-001  1.119642e-001  0.000000e+000
    outer loop
      vertex  1.511138e+000 -3.449074e-001  0.000000e+000
      vertex  1.550000e+000  0.000000e+000  5.250000e+000
      vertex  1.550000e+000  0.000000e+000  0.000000e+000
    endloop
  endfacet
  facet normal -1.119642e-001  9.937122e-001  0.000000e+000
    outer loop
      vertex  3.449074e-001 -1.511138e+000  5.250000e+000
      vertex -2.847210e-016 -1.550000e+000  0.000000e+000
      vertex -2.847210e-016 -1.550000e+000  5.250000e+000
    endloop
  endfacet
  facet normal  1.119642e-001  9.937122e-001  0.000000e+000
    outer loop
      vertex -2.847210e-016 -1.550000e+000  5.250000e+000
      vertex -2.847210e-016 -1.550000e+000  0.000000e+000
      vertex -3.449074e-001 -1.511138e+000  0.000000e+000
    endloop
  endfacet
  facet normal  1.119642e-001  9.937122e-001  -0.000000e+000
    outer loop
      vertex -2.847210e-016 -1.550000e+000  5.250000e+000
      vertex -3.449074e-001 -1.511138e+000  0.000000e+000
      vertex -3.449074e-001 -1.511138e+000  5.250000e+000
    endloop
  endfacet
  facet normal  3.302791e-001  9.438834e-001  0.000000e+000
    outer loop
      vertex -3.449074e-001 -1.511138e+000  5.250000e+000
      vertex -3.449074e-001 -1.511138e+000  0.000000e+000
      vertex -6.725198e-001 -1.396502e+000  0.000000e+000
    endloop
  endfacet
  facet normal  3.302791e-001  9.438834e-001  -0.000000e+000
    outer loop
      vertex -3.449074e-001 -1.511138e+000  5.250000e+000
      vertex -6.725198e-001 -1.396502e+000  0.000000e+000
      vertex -6.725198e-001 -1.396502e+000  5.250000e+000
    endloop
  endfacet
  facet normal  5.320321e-001  8.467243e-001  0.000000e+000
    outer loop
      vertex -6.725198e-001 -1.396502e+000  5.250000e+000
      vertex -6.725198e-001 -1.396502e+000  0.000000e+000
      vertex -9.664092e-001 -1.211839e+000  0.000000e+000
    endloop
  endfacet
  facet normal  5.320321e-001  8.467243e-001  -0.000000e+000
    outer loop
      vertex -6.725198e-001 -1.396502e+000  5.250000e+000
      vertex -9.664092e-001 -1.211839e+000  0.000000e+000
      vertex -9.664092e-001 -1.211839e+000  5.250000e+000
    endloop
  endfacet
  facet normal  7.071067e-001  7.071067e-001  0.000000e+000
    outer loop
      vertex -9.664092e-001 -1.211839e+000  5.250000e+000
      vertex -9.664092e-001 -1.211839e+000  0.000000e+000
      vertex -1.211839e+000 -9.664092e-001  0.000000e+000
    endloop
  endfacet
  facet normal  7.071067e-001  7.071067e-001  -0.000000e+000
    outer loop
      vertex -9.664092e-001 -1.211839e+000  5.250000e+000
      vertex -1.211839e+000 -9.664092e-001  0.000000e+000
      vertex -1.211839e+000 -9.664092e-001  5.250000e+000
    endloop
  endfacet
  facet normal  8.467243e-001  5.320321e-001  0.000000e+000
    outer loop
      vertex -1.211839e+000 -9.664092e-001  5.250000e+000
      vertex -1.211839e+000 -9.664092e-001  0.000000e+000
      vertex -1.396502e+000 -6.725198e-001  0.000000e+000
    endloop
  endfacet
  facet normal  8.467243e-001  5.320321e-001  -0.000000e+000
    outer loop
      vertex -1.211839e+000 -9.664092e-001  5.250000e+000
      vertex -1.396502e+000 -6.725198e-001  0.000000e+000
      vertex -1.396502e+000 -6.725198e-001  5.250000e+000
    endloop
  endfacet
  facet normal  9.438834e-001  3.302791e-001  0.000000e+000
    outer loop
      vertex -1.396502e+000 -6.725198e-001  5.250000e+000
      vertex -1.396502e+000 -6.725198e-001  0.000000e+000
      vertex -1.511138e+000 -3.449074e-001  0.000000e+000
    endloop
  endfacet
  facet normal  9.438834e-001  3.302791e-001  -0.000000e+000
    outer loop
      vertex -1.396502e+000 -6.725198e-001  5.250000e+000
      vertex -1.511138e+000 -3.449074e-001  0.000000e+000
      vertex -1.511138e+000 -3.449074e-001  5.250000e+000
    endloop
  endfacet
  facet normal  9.937122e-001  1.119642e-001  0.000000e+000
    outer loop
      vertex -1.511138e+000 -3.449074e-001  5.250000e+000
      vertex -1.511138e+000 -3.449074e-001  0.000000e+000
      vertex -1.550000e+000  1.898140e-016  0.000000e+000
    endloop
  endfacet
  facet normal  9.937122e-001  1.119642e-001  -0.000000e+000
    outer loop
      vertex -1.511138e+000 -3.449074e-001  5.250000e+000
      vertex -1.550000e+000  1.898140e-016  0.000000e+000
      vertex -1.550000e+000  1.898140e-016  5.250000e+000
    endloop
  endfacet
  facet normal  9.965845e-001 -8.257933e-002  0.000000e+000
    outer loop
      vertex  2.900000e+000  0.000000e+000  0.000000e+000
      vertex  2.900000e+000  0.000000e+000  5.250000e+000
      vertex  2.860448e+000 -4.773243e-001  0.000000e+000
    endloop
  endfacet
  facet normal  9.965845e-001 -8.257933e-002  0.000000e+000
    outer loop
      vertex  2.860448e+000 -4.773243e-001  0.000000e+000
      vertex  2.900000e+000  0.000000e+000  5.250000e+000
      vertex  2.860448e+000 -4.773243e-001  5.250000e+000
    endloop
  endfacet
  facet normal  9.694002e-001 -2.454855e-001  0.000000e+000
    outer loop
      vertex  2.860448e+000 -4.773243e-001  0.000000e+000
      vertex  2.860448e+000 -4.773243e-001  5.250000e+000
      vertex  2.742870e+000 -9.416285e-001  0.000000e+000
    endloop
  endfacet
  facet normal  9.694002e-001 -2.454855e-001  0.000000e+000
    outer loop
      vertex  2.742870e+000 -9.416285e-001  0.000000e+000
      vertex  2.860448e+000 -4.773243e-001  5.250000e+000
      vertex  2.742870e+000 -9.416285e-001  5.250000e+000
    endloop
  endfacet
  facet normal  9.157733e-001 -4.016955e-001  0.000000e+000
    outer loop
      vertex  2.742870e+000 -9.416285e-001  0.000000e+000
      vertex  2.742870e+000 -9.416285e-001  5.250000e+000
      vertex  2.550474e+000 -1.380247e+000  0.000000e+000
    endloop
  endfacet
  facet normal  9.157733e-001 -4.016955e-001  0.000000e+000
    outer loop
      vertex  2.550474e+000 -1.380247e+000  0.000000e+000
      vertex  2.742870e+000 -9.416285e-001  5.250000e+000
      vertex  2.550474e+000 -1.380247e+000  5.250000e+000
    endloop
  endfacet
  facet normal  8.371664e-001 -5.469483e-001  0.000000e+000
    outer loop
      vertex  2.550474e+000 -1.380247e+000  0.000000e+000
      vertex  2.550474e+000 -1.380247e+000  5.250000e+000
      vertex  2.288507e+000 -1.781217e+000  0.000000e+000
    endloop
  endfacet
  facet normal  8.371664e-001 -5.469483e-001  0.000000e+000
    outer loop
      vertex  2.288507e+000 -1.781217e+000  0.000000e+000
      vertex  2.550474e+000 -1.380247e+000  5.250000e+000
      vertex  2.288507e+000 -1.781217e+000  5.250000e+000
    endloop
  endfacet
  facet normal  7.357239e-001 -6.772816e-001  0.000000e+000
    outer loop
      vertex  2.288507e+000 -1.781217e+000  0.000000e+000
      vertex  2.288507e+000 -1.781217e+000  5.250000e+000
      vertex  1.964117e+000 -2.133599e+000  0.000000e+000
    endloop
  endfacet
  facet normal  7.357239e-001 -6.772816e-001  0.000000e+000
    outer loop
      vertex  1.964117e+000 -2.133599e+000  0.000000e+000
      vertex  2.288507e+000 -1.781217e+000  5.250000e+000
      vertex  1.964117e+000 -2.133599e+000  5.250000e+000
    endloop
  endfacet
  facet normal  6.142128e-001 -7.891405e-001  0.000000e+000
    outer loop
      vertex  1.964117e+000 -2.133599e+000  0.000000e+000
      vertex  1.964117e+000 -2.133599e+000  5.250000e+000
      vertex  1.586150e+000 -2.427783e+000  0.000000e+000
    endloop
  endfacet
  facet normal  6.142128e-001 -7.891405e-001  0.000000e+000
    outer loop
      vertex  1.586150e+000 -2.427783e+000  0.000000e+000
      vertex  1.964117e+000 -2.133599e+000  5.250000e+000
      vertex  1.586150e+000 -2.427783e+000  5.250000e+000
    endloop
  endfacet
  facet normal  4.759474e-001 -8.794737e-001  0.000000e+000
    outer loop
      vertex  1.586150e+000 -2.427783e+000  0.000000e+000
      vertex  1.586150e+000 -2.427783e+000  5.250000e+000
      vertex  1.164917e+000 -2.655743e+000  0.000000e+000
    endloop
  endfacet
  facet normal  4.759474e-001 -8.794737e-001  0.000000e+000
    outer loop
      vertex  1.164917e+000 -2.655743e+000  0.000000e+000
      vertex  1.586150e+000 -2.427783e+000  5.250000e+000
      vertex  1.164917e+000 -2.655743e+000  5.250000e+000
    endloop
  endfacet
  facet normal  3.246993e-001 -9.458173e-001  0.000000e+000
    outer loop
      vertex  1.164917e+000 -2.655743e+000  0.000000e+000
      vertex  1.164917e+000 -2.655743e+000  5.250000e+000
      vertex  7.119079e-001 -2.811261e+000  0.000000e+000
    endloop
  endfacet
  facet normal  3.246993e-001 -9.458173e-001  0.000000e+000
    outer loop
      vertex  7.119079e-001 -2.811261e+000  0.000000e+000
      vertex  1.164917e+000 -2.655743e+000  5.250000e+000
      vertex  7.119079e-001 -2.811261e+000  5.250000e+000
    endloop
  endfacet
  facet normal  1.645947e-001 -9.863613e-001  0.000000e+000
    outer loop
      vertex  7.119079e-001 -2.811261e+000  0.000000e+000
      vertex  7.119079e-001 -2.811261e+000  5.250000e+000
      vertex  2.394801e-001 -2.890095e+000  0.000000e+000
    endloop
  endfacet
  facet normal  1.645947e-001 -9.863613e-001  0.000000e+000
    outer loop
      vertex  2.394801e-001 -2.890095e+000  0.000000e+000
      vertex  7.119079e-001 -2.811261e+000  5.250000e+000
      vertex  2.394801e-001 -2.890095e+000  5.250000e+000
    endloop
  endfacet
  facet normal  0.000000e+000 -1.000000e+000  -0.000000e+000
    outer loop
      vertex  2.394801e-001 -2.890095e+000  0.000000e+000
      vertex  2.394801e-001 -2.890095e+000  5.250000e+000
      vertex -2.394801e-001 -2.890095e+000  0.000000e+000
    endloop
  endfacet
  facet normal  0.000000e+000 -1.000000e+000  0.000000e+000
    outer loop
      vertex -2.394801e-001 -2.890095e+000  0.000000e+000
      vertex  2.394801e-001 -2.890095e+000  5.250000e+000
      vertex -2.394801e-001 -2.890095e+000  5.250000e+000
    endloop
  endfacet
  facet normal -1.645947e-001 -9.863613e-001  -0.000000e+000
    outer loop
      vertex -2.394801e-001 -2.890095e+000  0.000000e+000
      vertex -2.394801e-001 -2.890095e+000  5.250000e+000
      vertex -7.119079e-001 -2.811261e+000  0.000000e+000
    endloop
  endfacet
  facet normal -1.645947e-001 -9.863613e-001  0.000000e+000
    outer loop
      vertex -7.119079e-001 -2.811261e+000  0.000000e+000
      vertex -2.394801e-001 -2.890095e+000  5.250000e+000
      vertex -7.119079e-001 -2.811261e+000  5.250000e+000
    endloop
  endfacet
  facet normal -3.246993e-001 -9.458173e-001  -0.000000e+000
    outer loop
      vertex -7.119079e-001 -2.811261e+000  0.000000e+000
      vertex -7.119079e-001 -2.811261e+000  5.250000e+000
      vertex -1.164917e+000 -2.655743e+000  0.000000e+000
    endloop
  endfacet
  facet normal -3.246993e-001 -9.458173e-001  0.000000e+000
    outer loop
      vertex -1.164917e+000 -2.655743e+000  0.000000e+000
      vertex -7.119079e-001 -2.811261e+000  5.250000e+000
      vertex -1.164917e+000 -2.655743e+000  5.250000e+000
    endloop
  endfacet
  facet normal -4.759474e-001 -8.794737e-001  -0.000000e+000
    outer loop
      vertex -1.164917e+000 -2.655743e+000  0.000000e+000
      vertex -1.164917e+000 -2.655743e+000  5.250000e+000
      vertex -1.586150e+000 -2.427783e+000  0.000000e+000
    endloop
  endfacet
  facet normal -4.759474e-001 -8.794737e-001  0.000000e+000
    outer loop
      vertex -1.586150e+000 -2.427783e+000  0.000000e+000
      vertex -1.164917e+000 -2.655743e+000  5.250000e+000
      vertex -1.586150e+000 -2.427783e+000  5.250000e+000
    endloop
  endfacet
  facet normal -6.142128e-001 -7.891405e-001  -0.000000e+000
    outer loop
      vertex -1.586150e+000 -2.427783e+000  0.000000e+000
      vertex -1.586150e+000 -2.427783e+000  5.250000e+000
      vertex -1.964117e+000 -2.133599e+000  0.000000e+000
    endloop
  endfacet
  facet normal -6.142128e-001 -7.891405e-001  0.000000e+000
    outer loop
      vertex -1.964117e+000 -2.133599e+000  0.000000e+000
      vertex -1.586150e+000 -2.427783e+000  5.250000e+000
      vertex -1.964117e+000 -2.133599e+000  5.250000e+000
    endloop
  endfacet
  facet normal -7.357239e-001 -6.772816e-001  -0.000000e+000
    outer loop
      vertex -1.964117e+000 -2.133599e+000  0.000000e+000
      vertex -1.964117e+000 -2.133599e+000  5.250000e+000
      vertex -2.288507e+000 -1.781217e+000  0.000000e+000
    endloop
  endfacet
  facet normal -7.357239e-001 -6.772816e-001  0.000000e+000
    outer loop
      vertex -2.288507e+000 -1.781217e+000  0.000000e+000
      vertex -1.964117e+000 -2.133599e+000  5.250000e+000
      vertex -2.288507e+000 -1.781217e+000  5.250000e+000
    endloop
  endfacet
  facet normal -8.371664e-001 -5.469483e-001  -0.000000e+000
    outer loop
      vertex -2.288507e+000 -1.781217e+000  0.000000e+000
      vertex -2.288507e+000 -1.781217e+000  5.250000e+000
      vertex -2.550474e+000 -1.380247e+000  0.000000e+000
    endloop
  endfacet
  facet normal -8.371664e-001 -5.469483e-001  0.000000e+000
    outer loop
      vertex -2.550474e+000 -1.380247e+000  0.000000e+000
      vertex -2.288507e+000 -1.781217e+000  5.250000e+000
      vertex -2.550474e+000 -1.380247e+000  5.250000e+000
    endloop
  endfacet
  facet normal -9.157733e-001 -4.016955e-001  -0.000000e+000
    outer loop
      vertex -2.550474e+000 -1.380247e+000  0.000000e+000
      vertex -2.550474e+000 -1.380247e+000  5.250000e+000
      vertex -2.742870e+000 -9.416285e-001  0.000000e+000
    endloop
  endfacet
  facet normal -9.157733e-001 -4.016955e-001  0.000000e+000
    outer loop
      vertex -2.742870e+000 -9.416285e-001  0.000000e+000
      vertex -2.550474e+000 -1.380247e+000  5.250000e+000
      vertex -2.742870e+000 -9.416285e-001  5.250000e+000
    endloop
  endfacet
  facet normal -9.694002e-001 -2.454855e-001  -0.000000e+000
    outer loop
      vertex -2.742870e+000 -9.416285e-001  0.000000e+000
      vertex -2.742870e+000 -9.416285e-001  5.250000e+000
      vertex -2.860448e+000 -4.773243e-001  0.000000e+000
    endloop
  endfacet
  facet normal -9.694002e-001 -2.454855e-001  0.000000e+000
    outer loop
      vertex -2.860448e+000 -4.773243e-001  0.000000e+000
      vertex -2.742870e+000 -9.416285e-001  5.250000e+000
      vertex -2.860448e+000 -4.773243e-001  5.250000e+000
    endloop
  endfacet
  facet normal -9.965845e-001 -8.257933e-002  -0.000000e+000
    outer loop
      vertex -2.860448e+000 -4.773243e-001  0.000000e+000
      vertex -2.860448e+000 -4.773243e-001  5.250000e+000
      vertex -2.900000e+000  1.642995e-015  0.000000e+000
    endloop
  endfacet
  facet normal -9.965845e-001 -8.257933e-002  0.000000e+000
    outer loop
      vertex -2.900000e+000  1.642995e-015  0.000000e+000
      vertex -2.860448e+000 -4.773243e-001  5.250000e+000
      vertex -2.900000e+000  1.642995e-015  5.250000e+000
    endloop
  endfacet
  facet normal -9.965845e-001  8.257933e-002  0.000000e+000
    outer loop
      vertex -2.900000e+000  1.642995e-015  0.000000e+000
      vertex -2.900000e+000  1.642995e-015  5.250000e+000
      vertex -2.860448e+000  4.773243e-001  0.000000e+000
    endloop
  endfacet
  facet normal -9.965845e-001  8.257933e-002  0.000000e+000
    outer loop
      vertex -2.860448e+000  4.773243e-001  0.000000e+000
      vertex -2.900000e+000  1.642995e-015  5.250000e+000
      vertex -2.860448e+000  4.773243e-001  5.250000e+000
    endloop
  endfacet
  facet normal -9.694002e-001  2.454855e-001  0.000000e+000
    outer loop
      vertex -2.860448e+000  4.773243e-001  0.000000e+000
      vertex -2.860448e+000  4.773243e-001  5.250000e+000
      vertex -2.742870e+000  9.416285e-001  0.000000e+000
    endloop
  endfacet
  facet normal -9.694002e-001  2.454855e-001  0.000000e+000
    outer loop
      vertex -2.742870e+000  9.416285e-001  0.000000e+000
      vertex -2.860448e+000  4.773243e-001  5.250000e+000
      vertex -2.742870e+000  9.416285e-001  5.250000e+000
    endloop
  endfacet
  facet normal -9.157733e-001  4.016955e-001  0.000000e+000
    outer loop
      vertex -2.742870e+000  9.416285e-001  0.000000e+000
      vertex -2.742870e+000  9.416285e-001  5.250000e+000
      vertex -2.550474e+000  1.380247e+000  0.000000e+000
    endloop
  endfacet
  facet normal -9.157733e-001  4.016955e-001  0.000000e+000
    outer loop
      vertex -2.550474e+000  1.380247e+000  0.000000e+000
      vertex -2.742870e+000  9.416285e-001  5.250000e+000
      vertex -2.550474e+000  1.380247e+000  5.250000e+000
    endloop
  endfacet
  facet normal -8.371664e-001  5.469483e-001  0.000000e+000
    outer loop
      vertex -2.550474e+000  1.380247e+000  0.000000e+000
      vertex -2.550474e+000  1.380247e+000  5.250000e+000
      vertex -2.288507e+000  1.781217e+000  0.000000e+000
    endloop
  endfacet
  facet normal -8.371664e-001  5.469483e-001  0.000000e+000
    outer loop
      vertex -2.288507e+000  1.781217e+000  0.000000e+000
      vertex -2.550474e+000  1.380247e+000  5.250000e+000
      vertex -2.288507e+000  1.781217e+000  5.250000e+000
    endloop
  endfacet
  facet normal -7.357239e-001  6.772816e-001  0.000000e+000
    outer loop
      vertex -2.288507e+000  1.781217e+000  0.000000e+000
      vertex -2.288507e+000  1.781217e+000  5.250000e+000
      vertex -1.964117e+000  2.133599e+000  0.000000e+000
    endloop
  endfacet
  facet normal -7.357239e-001  6.772816e-001  0.000000e+000
    outer loop
      vertex -1.964117e+000  2.133599e+000  0.000000e+000
      vertex -2.288507e+000  1.781217e+000  5.250000e+000
      vertex -1.964117e+000  2.133599e+000  5.250000e+000
    endloop
  endfacet
  facet normal -6.142128e-001  7.891405e-001  0.000000e+000
    outer loop
      vertex -1.964117e+000  2.133599e+000  0.000000e+000
      vertex -1.964117e+000  2.133599e+000  5.250000e+000
      vertex -1.586150e+000  2.427783e+000  0.000000e+000
    endloop
  endfacet
  facet normal -6.142128e-001  7.891405e-001  0.000000e+000
    outer loop
      vertex -1.586150e+000  2.427783e+000  0.000000e+000
      vertex -1.964117e+000  2.133599e+000  5.250000e+000
      vertex -1.586150e+000  2.427783e+000  5.250000e+000
    endloop
  endfacet
  facet normal -4.759474e-001  8.794737e-001  0.000000e+000
    outer loop
      vertex -1.586150e+000  2.427783e+000  0.000000e+000
      vertex -1.586150e+000  2.427783e+000  5.250000e+000
      vertex -1.164917e+000  2.655743e+000  0.000000e+000
    endloop
  endfacet
  facet normal -4.759474e-001  8.794737e-001  0.000000e+000
    outer loop
      vertex -1.164917e+000  2.655743e+000  0.000000e+000
      vertex -1.586150e+000  2.427783e+000  5.250000e+000
      vertex -1.164917e+000  2.655743e+000  5.250000e+000
    endloop
  endfacet
  facet normal -3.246993e-001  9.458173e-001  0.000000e+000
    outer loop
      vertex -1.164917e+000  2.655743e+000  0.000000e+000
      vertex -1.164917e+000  2.655743e+000  5.250000e+000
      vertex -7.119079e-001  2.811261e+000  0.000000e+000
    endloop
  endfacet
  facet normal -3.246993e-001  9.458173e-001  0.000000e+000
    outer loop
      vertex -7.119079e-001  2.811261e+000  0.000000e+000
      vertex -1.164917e+000  2.655743e+000  5.250000e+000
      vertex -7.119079e-001  2.811261e+000  5.250000e+000
    endloop
  endfacet
  facet normal -1.645947e-001  9.863613e-001  0.000000e+000
    outer loop
      vertex -7.119079e-001  2.811261e+000  0.000000e+000
      vertex -7.119079e-001  2.811261e+000  5.250000e+000
      vertex -2.394801e-001  2.890095e+000  0.000000e+000
    endloop
  endfacet
  facet normal -1.645947e-001  9.863613e-001  0.000000e+000
    outer loop
      vertex -2.394801e-001  2.890095e+000  0.000000e+000
      vertex -7.119079e-001  2.811261e+000  5.250000e+000
      vertex -2.394801e-001  2.890095e+000  5.250000e+000
    endloop
  endfacet
  facet normal  0.000000e+000  1.000000e+000  0.000000e+000
    outer loop
      vertex -2.394801e-001  2.890095e+000  0.000000e+000
      vertex -2.394801e-001  2.890095e+000  5.250000e+000
      vertex  2.394801e-001  2.890095e+000  0.000000e+000
    endloop
  endfacet
  facet normal  0.000000e+000  1.000000e+000  -0.000000e+000
    outer loop
      vertex  2.394801e-001  2.890095e+000  0.000000e+000
      vertex -2.394801e-001  2.890095e+000  5.250000e+000
      vertex  2.394801e-001  2.890095e+000  5.250000e+000
    endloop
  endfacet
  facet normal  1.645947e-001  9.863613e-001  0.000000e+000
    outer loop
      vertex  2.394801e-001  2.890095e+000  0.000000e+000
      vertex  2.394801e-001  2.890095e+000  5.250000e+000
      vertex  7.119079e-001  2.811261e+000  0.000000e+000
    endloop
  endfacet
  facet normal  1.645947e-001  9.863613e-001  -0.000000e+000
    outer loop
      vertex  7.119079e-001  2.811261e+000  0.000000e+000
      vertex  2.394801e-001  2.890095e+000  5.250000e+000
      vertex  7.119079e-001  2.811261e+000  5.250000e+000
    endloop
  endfacet
  facet normal  3.246993e-001  9.458173e-001  0.000000e+000
    outer loop
      vertex  7.119079e-001  2.811261e+000  0.000000e+000
      vertex  7.119079e-001  2.811261e+000  5.250000e+000
      vertex  1.164917e+000  2.655743e+000  0.000000e+000
    endloop
  endfacet
  facet normal  3.246993e-001  9.458173e-001  -0.000000e+000
    outer loop
      vertex  1.164917e+000  2.655743e+000  0.000000e+000
      vertex  7.119079e-001  2.811261e+000  5.250000e+000
      vertex  1.164917e+000  2.655743e+000  5.250000e+000
    endloop
  endfacet
  facet normal  4.759474e-001  8.794737e-001  0.000000e+000
    outer loop
      vertex  1.164917e+000  2.655743e+000  0.000000e+000
      vertex  1.164917e+000  2.655743e+000  5.250000e+000
      vertex  1.586150e+000  2.427783e+000  0.000000e+000
    endloop
  endfacet
  facet normal  4.759474e-001  8.794737e-001  -0.000000e+000
    outer loop
      vertex  1.586150e+000  2.427783e+000  0.000000e+000
      vertex  1.164917e+000  2.655743e+000  5.250000e+000
      vertex  1.586150e+000  2.427783e+000  5.250000e+000
    endloop
  endfacet
  facet normal  6.142128e-001  7.891405e-001  0.000000e+000
    outer loop
      vertex  1.586150e+000  2.427783e+000  0.000000e+000
      vertex  1.586150e+000  2.427783e+000  5.250000e+000
      vertex  1.964117e+000  2.133599e+000  0.000000e+000
    endloop
  endfacet
  facet normal  6.142128e-001  7.891405e-001  -0.000000e+000
    outer loop
      vertex  1.964117e+000  2.133599e+000  0.000000e+000
      vertex  1.586150e+000  2.427783e+000  5.250000e+000
      vertex  1.964117e+000  2.133599e+000  5.250000e+000
    endloop
  endfacet
  facet normal  7.357239e-001  6.772816e-001  0.000000e+000
    outer loop
      vertex  1.964117e+000  2.133599e+000  0.000000e+000
      vertex  1.964117e+000  2.133599e+000  5.250000e+000
      vertex  2.288507e+000  1.781217e+000  0.000000e+000
    endloop
  endfacet
  facet normal  7.357239e-001  6.772816e-001  -0.000000e+000
    outer loop
      vertex  2.288507e+000  1.781217e+000  0.000000e+000
      vertex  1.964117e+000  2.133599e+000  5.250000e+000
      vertex  2.288507e+000  1.781217e+000  5.250000e+000
    endloop
  endfacet
  facet normal  8.371664e-001  5.469483e-001  0.000000e+000
    outer loop
      vertex  2.288507e+000  1.781217e+000  0.000000e+000
      vertex  2.288507e+000  1.781217e+000  5.250000e+000
      vertex  2.550474e+000  1.380247e+000  0.000000e+000
    endloop
  endfacet
  facet normal  8.371664e-001  5.469483e-001  -0.000000e+000
    outer loop
      vertex  2.550474e+000  1.380247e+000  0.000000e+000
      vertex  2.288507e+000  1.781217e+000  5.250000e+000
      vertex  2.550474e+000  1.380247e+000  5.250000e+000
    endloop
  endfacet
  facet normal  9.157733e-001  4.016955e-001  0.000000e+000
    outer loop
      vertex  2.550474e+000  1.380247e+000  0.000000e+000
      vertex  2.550474e+000  1.380247e+000  5.250000e+000
      vertex  2.742870e+000  9.416285e-001  0.000000e+000
    endloop
  endfacet
  facet normal  9.157733e-001  4.016955e-001  -0.000000e+000
    outer loop
      vertex  2.742870e+000  9.416285e-001  0.000000e+000
      vertex  2.550474e+000  1.380247e+000  5.250000e+000
      vertex  2.742870e+000  9.416285e-001  5.250000e+000
    endloop
  endfacet
  facet normal  9.694002e-001  2.454855e-001  0.000000e+000
    outer loop
      vertex  2.742870e+000  9.416285e-001  0.000000e+000
      vertex  2.742870e+000  9.416285e-001  5.250000e+000
      vertex  2.860448e+000  4.773243e-001  0.000000e+000
    endloop
  endfacet
  facet normal  9.694002e-001  2.454855e-001  -0.000000e+000
    outer loop
      vertex  2.860448e+000  4.773243e-001  0.000000e+000
      vertex  2.742870e+000  9.416285e-001  5.250000e+000
      vertex  2.860448e+000  4.773243e-001  5.250000e+000
    endloop
  endfacet
  facet normal  9.965845e-001  8.257933e-002  0.000000e+000
    outer loop
      vertex  2.860448e+000  4.773243e-001  0.000000e+000
      vertex  2.860448e+000  4.773243e-001  5.250000e+000
      vertex  2.900000e+000  0.000000e+000  0.000000e+000
    endloop
  endfacet
  facet normal  9.965845e-001  8.257933e-002  -0.000000e+000
    outer loop
      vertex  2.900000e+000  0.000000e+000  0.000000e+000
      vertex  2.860448e+000  4.773243e-001  5.250000e+000
      vertex  2.900000e+000  0.000000e+000  5.250000e+000
    endloop
  endfacet
endsolid CATIA STL
